<svg xmlns="http://www.w3.org/2000/svg" width="31" height="64.367" viewBox="0 0 31 64.367">
  <g id="ICON_MARKERCROSS" transform="translate(0.5 0.5)">
    <g id="ICON_CROSS" transform="translate(2.04 37.24)">
      <path id="Icon_ionic-md-close" data-name="Icon ionic-md-close" d="M33.443,10.115,30.851,7.523,20.483,17.891,10.115,7.523,7.523,10.115,17.891,20.483,7.523,30.851l2.592,2.592L20.483,23.075,30.851,33.443l2.592-2.592L23.075,20.483Z" transform="translate(-7.523 -7.523)" fill="#414141" stroke="#fff" stroke-width="1"/>
    </g>
    <g id="ICON_MARKER">
      <path id="Icon_ionic-md-pin" data-name="Icon ionic-md-pin" d="M21.75,2.25a14.9,14.9,0,0,0-15,14.7c0,11.025,15,27.3,15,27.3s15-16.275,15-27.3A14.9,14.9,0,0,0,21.75,2.25Zm0,19.95a5.251,5.251,0,1,1,5.357-5.25A5.253,5.253,0,0,1,21.75,22.2Z" transform="translate(-6.75 -2.25)" fill="#38dea8" stroke="#fff" stroke-width="1"/>
      <circle id="Ellipse_3" data-name="Ellipse 3" cx="7" cy="7" r="7" transform="translate(8 8.2)" fill="#fff"/>
    </g>
  </g>
</svg>
